<svg width="16" height="16" viewBox="0 0 20 20" fill="none" xmlns="http://www.w3.org/2000/svg">
    <path fill-rule="evenodd" clip-rule="evenodd" d="M.633 1a.633.633 0 1 0 0 1.267H2.04l.509 2.035 1.896 10.115c.056.3.318.516.623.516h1.266a2.533 2.533 0 1 0 0 5.067 2.533 2.533 0 0 0 0-5.067H15.2a2.533 2.533 0 1 0 0 5.067 2.533 2.533 0 0 0 0-5.067h1.267a.633.633 0 0 0 .622-.516l1.9-10.134a.633.633 0 0 0-.622-.75H3.66L3.148 1.48A.633.633 0 0 0 2.533 1h-1.9zm4.434 16.467a1.267 1.267 0 1 1 2.533 0 1.267 1.267 0 0 1-2.533 0zm8.866 0a1.267 1.267 0 1 1 2.534 0 1.267 1.267 0 0 1-2.534 0zM11.4 6.7a.633.633 0 0 0-1.267 0v1.9h-1.9a.633.633 0 1 0 0 1.267h1.9v1.9a.633.633 0 0 0 1.267 0v-1.9h1.9a.633.633 0 1 0 0-1.267h-1.9V6.7z" fill="#000"/>
</svg>
